<svg width="1920" height="1080" xmlns="http://www.w3.org/2000/svg">
  <!-- Background -->
  <rect width="100%" height="100%" fill="#111827"/>
  
  <!-- Grid pattern to simulate circuit board -->
  <g stroke="#374151" stroke-width="2">
    <!-- Horizontal lines -->
    <line x1="0" y1="40" x2="1920" y2="40" />
    <line x1="0" y1="80" x2="1920" y2="80" />
    <line x1="0" y1="120" x2="1920" y2="120" />
    <line x1="0" y1="160" x2="1920" y2="160" />
    <line x1="0" y1="200" x2="1920" y2="200" />
    <line x1="0" y1="240" x2="1920" y2="240" />
    <line x1="0" y1="280" x2="1920" y2="280" />
    <line x1="0" y1="320" x2="1920" y2="320" />
    <line x1="0" y1="360" x2="1920" y2="360" />
    <line x1="0" y1="400" x2="1920" y2="400" />
    <line x1="0" y1="440" x2="1920" y2="440" />
    <line x1="0" y1="480" x2="1920" y2="480" />
    <line x1="0" y1="520" x2="1920" y2="520" />
    <line x1="0" y1="560" x2="1920" y2="560" />
    <line x1="0" y1="600" x2="1920" y2="600" />
    <line x1="0" y1="640" x2="1920" y2="640" />
    <line x1="0" y1="680" x2="1920" y2="680" />
    <line x1="0" y1="720" x2="1920" y2="720" />
    <line x1="0" y1="760" x2="1920" y2="760" />
    <line x1="0" y1="800" x2="1920" y2="800" />
    <line x1="0" y1="840" x2="1920" y2="840" />
    <line x1="0" y1="880" x2="1920" y2="880" />
    <line x1="0" y1="920" x2="1920" y2="920" />
    <line x1="0" y1="960" x2="1920" y2="960" />
    <line x1="0" y1="1000" x2="1920" y2="1000" />
    <line x1="0" y1="1040" x2="1920" y2="1040" />
    
    <!-- Vertical lines -->
    <line x1="40" y1="0" x2="40" y2="1080" />
    <line x1="80" y1="0" x2="80" y2="1080" />
    <line x1="120" y1="0" x2="120" y2="1080" />
    <line x1="160" y1="0" x2="160" y2="1080" />
    <line x1="200" y1="0" x2="200" y2="1080" />
    <line x1="240" y1="0" x2="240" y2="1080" />
    <line x1="280" y1="0" x2="280" y2="1080" />
    <line x1="320" y1="0" x2="320" y2="1080" />
    <line x1="360" y1="0" x2="360" y2="1080" />
    <line x1="400" y1="0" x2="400" y2="1080" />
    <line x1="440" y1="0" x2="440" y2="1080" />
    <line x1="480" y1="0" x2="480" y2="1080" />
    <line x1="520" y1="0" x2="520" y2="1080" />
    <line x1="560" y1="0" x2="560" y2="1080" />
    <line x1="600" y1="0" x2="600" y2="1080" />
    <line x1="640" y1="0" x2="640" y2="1080" />
    <line x1="680" y1="0" x2="680" y2="1080" />
    <line x1="720" y1="0" x2="720" y2="1080" />
    <line x1="760" y1="0" x2="760" y2="1080" />
    <line x1="800" y1="0" x2="800" y2="1080" />
    <line x1="840" y1="0" x2="840" y2="1080" />
    <line x1="880" y1="0" x2="880" y2="1080" />
    <line x1="920" y1="0" x2="920" y2="1080" />
    <line x1="960" y1="0" x2="960" y2="1080" />
    <line x1="1000" y1="0" x2="1000" y2="1080" />
    <line x1="1040" y1="0" x2="1040" y2="1080" />
    <line x1="1080" y1="0" x2="1080" y2="1080" />
    <line x1="1120" y1="0" x2="1120" y2="1080" />
    <line x1="1160" y1="0" x2="1160" y2="1080" />
    <line x1="1200" y1="0" x2="1200" y2="1080" />
    <line x1="1240" y1="0" x2="1240" y2="1080" />
    <line x1="1280" y1="0" x2="1280" y2="1080" />
    <line x1="1320" y1="0" x2="1320" y2="1080" />
    <line x1="1360" y1="0" x2="1360" y2="1080" />
    <line x1="1400" y1="0" x2="1400" y2="1080" />
    <line x1="1440" y1="0" x2="1440" y2="1080" />
    <line x1="1480" y1="0" x2="1480" y2="1080" />
    <line x1="1520" y1="0" x2="1520" y2="1080" />
    <line x1="1560" y1="0" x2="1560" y2="1080" />
    <line x1="1600" y1="0" x2="1600" y2="1080" />
    <line x1="1640" y1="0" x2="1640" y2="1080" />
    <line x1="1680" y1="0" x2="1680" y2="1080" />
    <line x1="1720" y1="0" x2="1720" y2="1080" />
    <line x1="1760" y1="0" x2="1760" y2="1080" />
    <line x1="1800" y1="0" x2="1800" y2="1080" />
    <line x1="1840" y1="0" x2="1840" y2="1080" />
    <line x1="1880" y1="0" x2="1880" y2="1080" />
  </g>
  
  <!-- Circuit elements - different pattern than first slide -->
  <g stroke="#6b7280" stroke-width="2" fill="none">
    <circle cx="100" cy="100" r="25" />
    <circle cx="300" cy="200" r="18" />
    <circle cx="500" cy="100" r="22" />
    <circle cx="700" cy="300" r="20" />
    <circle cx="900" cy="100" r="15" />
    <circle cx="1100" cy="200" r="28" />
    <circle cx="1300" cy="100" r="19" />
    <circle cx="1500" cy="300" r="23" />
    <rect x="200" y="400" width="35" height="35" />
    <rect x="400" y="500" width="28" height="28" />
    <rect x="600" y="400" width="40" height="40" />
    <rect x="800" y="500" width="30" height="30" />
    <rect x="1000" y="400" width="25" height="25" />
    <rect x="1200" y="500" width="38" height="38" />
    <rect x="1400" y="400" width="32" height="32" />
    <rect x="1600" y="500" width="36" height="36" />
    
    <!-- Add some connecting lines -->
    <line x1="100" y1="100" x2="300" y2="200" />
    <line x1="500" y1="100" x2="700" y2="300" />
    <line x1="900" y1="100" x2="1100" y2="200" />
    <line x1="1300" y1="100" x2="1500" y2="300" />
    <line x1="200" y1="400" x2="400" y2="500" />
    <line x1="600" y1="400" x2="800" y2="500" />
    <line x1="1000" y1="400" x2="1200" y2="500" />
    <line x1="1400" y1="400" x2="1600" y2="500" />
  </g>
  
  <!-- Text -->
  <text x="960" y="540" font-family="sans-serif" font-size="80" font-weight="bold" fill="#f9fafb" text-anchor="middle">Advanced Security Solutions</text>
  <text x="960" y="640" font-family="sans-serif" font-size="40" font-weight="bold" fill="#f9fafb" text-anchor="middle">InfraGuard Technologies</text>
</svg> 