<svg xmlns="http://www.w3.org/2000/svg" width="800" height="600" viewBox="0 0 800 600">
  <rect width="800" height="600" fill="#2d3748"/>
  
  <!-- Buildings and infrastructure -->
  <rect x="150" y="300" width="100" height="200" fill="#4a5568" stroke="#fff" stroke-width="2"/>
  <rect x="300" y="250" width="80" height="250" fill="#4a5568" stroke="#fff" stroke-width="2"/>
  <rect x="430" y="200" width="120" height="300" fill="#4a5568" stroke="#fff" stroke-width="2"/>
  <rect x="600" y="350" width="70" height="150" fill="#4a5568" stroke="#fff" stroke-width="2"/>
  
  <!-- Windows -->
  <rect x="170" y="330" width="20" height="20" fill="#a0aec0"/>
  <rect x="210" y="330" width="20" height="20" fill="#a0aec0"/>
  <rect x="170" y="370" width="20" height="20" fill="#a0aec0"/>
  <rect x="210" y="370" width="20" height="20" fill="#a0aec0"/>
  <rect x="170" y="410" width="20" height="20" fill="#a0aec0"/>
  <rect x="210" y="410" width="20" height="20" fill="#a0aec0"/>
  
  <rect x="320" y="280" width="15" height="30" fill="#a0aec0"/>
  <rect x="345" y="280" width="15" height="30" fill="#a0aec0"/>
  <rect x="320" y="330" width="15" height="30" fill="#a0aec0"/>
  <rect x="345" y="330" width="15" height="30" fill="#a0aec0"/>
  <rect x="320" y="380" width="15" height="30" fill="#a0aec0"/>
  <rect x="345" y="380" width="15" height="30" fill="#a0aec0"/>
  
  <!-- Ground -->
  <rect x="0" y="500" width="800" height="100" fill="#1a202c"/>
  
  <text x="400" y="570" font-family="Arial" font-size="24" text-anchor="middle" fill="#fff">Infrastructure Protection</text>
</svg> 